<svg id="Layer_1" data-name="Layer 1" xmlns="http://www.w3.org/2000/svg" viewBox="0 0 96 96"><title>groups_clicked</title><path d="M57.5,16.24a21.48,21.48,0,0,1,8.12,15.4,12.14,12.14,0,0,0,5.95,1.58c7.78,0,14.08-7.49,14.08-16.72S79.35-.24,71.57-.24,57.62,7.12,57.5,16.24ZM48.28,50.5c7.78,0,14.08-7.49,14.08-16.73S56.05,17,48.28,17,34.2,24.53,34.2,33.77,40.5,50.5,48.28,50.5Zm6,1.14h-12c-9.94,0-18,9.61-18,21.42V90.42l0,.27,1,.38a70.28,70.28,0,0,0,24.51,4.69c13.25,0,20.93-4.48,21.4-4.77l.94-.57h.1V73.06C72.28,61.25,64.19,51.64,54.25,51.64ZM77.54,34.37H65.69a22.53,22.53,0,0,1-5.36,14.36c8.84,3.12,15.31,12.86,15.31,24.36v5.35c11.7-.51,18.45-4.46,18.89-4.72l.94-.57h.1V55.79C95.57,44,87.48,34.37,77.54,34.37Zm-54-1.14a12.4,12.4,0,0,0,7.49-2.59,21.7,21.7,0,0,1,6.55-13.2c0-.31,0-.62,0-.94,0-9.24-6.3-16.73-14.08-16.73S9.49,7.26,9.49,16.5,15.8,33.23,23.57,33.23Zm12.65,15.5a22.49,22.49,0,0,1-5.35-14.28c-.44,0-.88-.08-1.33-.08H17.6c-9.94,0-18,9.61-18,21.42V73.15l0,.27,1,.37a72.52,72.52,0,0,0,20.31,4.54V73.09C20.92,61.59,27.38,51.85,36.22,48.73Z"/></svg>